<?xml version="1.0" encoding="UTF-8" standalone="no"?>
<svg
   xmlns:dc="http://purl.org/dc/elements/1.1/"
   xmlns:cc="http://creativecommons.org/ns#"
   xmlns:rdf="http://www.w3.org/1999/02/22-rdf-syntax-ns#"
   xmlns:svg="http://www.w3.org/2000/svg"
   xmlns="http://www.w3.org/2000/svg"
   xmlns:sodipodi="http://sodipodi.sourceforge.net/DTD/sodipodi-0.dtd"
   xmlns:inkscape="http://www.inkscape.org/namespaces/inkscape"
   width="24"
   height="24"
   viewBox="0 0 24 24"
   version="1.1"
   id="svg4"
   sodipodi:docname="fork.svg"
   inkscape:version="1.0.1 (1.0.1+r74)">
  <metadata
     id="metadata10">
    <rdf:RDF>
      <cc:Work
         rdf:about="">
        <dc:format>image/svg+xml</dc:format>
        <dc:type
           rdf:resource="http://purl.org/dc/dcmitype/StillImage" />
      </cc:Work>
    </rdf:RDF>
  </metadata>
  <defs
     id="defs8" />
  <sodipodi:namedview
     pagecolor="#ffffff"
     bordercolor="#666666"
     borderopacity="1"
     objecttolerance="10"
     gridtolerance="10"
     guidetolerance="10"
     inkscape:pageopacity="0"
     inkscape:pageshadow="2"
     inkscape:window-width="1920"
     inkscape:window-height="1055"
     id="namedview6"
     showgrid="false"
     inkscape:zoom="26.0451"
     inkscape:cx="10.958816"
     inkscape:cy="16.144781"
     inkscape:window-x="0"
     inkscape:window-y="0"
     inkscape:window-maximized="1"
     inkscape:current-layer="svg4" />
  <path
     d="M21 3c0-1.657-1.343-3-3-3s-3 1.343-3 3c0 1.323.861 2.433 2.05 2.832.168 4.295-2.021 4.764-4.998 5.391-1.709.36-3.642.775-5.052 2.085v-7.492c1.163-.413 2-1.511 2-2.816 0-1.657-1.343-3-3-3s-3 1.343-3 3c0 1.305.837 2.403 2 2.816v12.367c-1.163.414-2 1.512-2 2.817 0 1.657 1.343 3 3 3s3-1.343 3-3c0-1.295-.824-2.388-1.973-2.808.27-3.922 2.57-4.408 5.437-5.012 3.038-.64 6.774-1.442 6.579-7.377 1.141-.425 1.957-1.514 1.957-2.803zm-16.8 0c0-.993.807-1.8 1.8-1.8s1.8.807 1.8 1.8-.807 1.8-1.8 1.8-1.8-.807-1.8-1.8zm3.6 18c0 .993-.807 1.8-1.8 1.8s-1.8-.807-1.8-1.8.807-1.8 1.8-1.8 1.8.807 1.8 1.8zm10.2-16.2c-.993 0-1.8-.807-1.8-1.8s.807-1.8 1.8-1.8 1.8.807 1.8 1.8-.807 1.8-1.8 1.8z"
     id="path2"
     style="fill:#d7d5ff;fill-opacity:1" />
</svg>
